<?xml version="1.0" encoding="UTF-8" standalone="no"?>
<svg
   xmlns:dc="http://purl.org/dc/elements/1.1/"
   xmlns:cc="http://creativecommons.org/ns#"
   xmlns:rdf="http://www.w3.org/1999/02/22-rdf-syntax-ns#"
   xmlns:svg="http://www.w3.org/2000/svg"
   xmlns="http://www.w3.org/2000/svg"
   width="33"
   height="33.998287"
   viewBox="0 0 33 33.998287"
   version="1.1"
   id="svg11">
  <metadata
     id="metadata15">
    <rdf:RDF>
      <cc:Work
         rdf:about="">
        <dc:format>image/svg+xml</dc:format>
        <dc:type
           rdf:resource="http://purl.org/dc/dcmitype/StillImage" />
        <dc:title>logo</dc:title>
      </cc:Work>
    </rdf:RDF>
  </metadata>
  <!-- Generator: Sketch 50.2 (55047) - http://www.bohemiancoding.com/sketch -->
  <title
     id="title2">logo</title>
  <desc
     id="desc4">Created with Sketch.</desc>
  <defs
     id="defs6" />
  <g
     id="logo"
     stroke="none"
     stroke-width="1"
     fill="none"
     fill-rule="evenodd"
     transform="translate(-22.140593,-21.707254)">
    <path
       d="m 48.530826,51.64986 c 0.129264,-1.205579 0.500713,-2.374721 0.935061,-3.508405 0.761471,-1.986881 1.881019,-3.798916 2.974071,-5.619266 1.064573,-1.773399 2.270545,-3.702813 2.625898,-5.765257 0.467284,-2.712918 -1.34737,-5.49015 -2.9186,-7.557974 -2.155644,-2.83641 -4.83107,-5.296719 -7.639226,-7.491704 0.166657,2.612902 0.187706,5.360789 -0.109701,8.012084 -0.281064,2.506282 -0.944967,4.94605 -1.845608,7.301941 -0.496504,1.299237 -1.063831,2.572308 -1.697523,3.812122 -0.200583,0.391996 -0.218165,0.401533 -0.659446,0.343088 -0.339505,-0.04475 -0.678514,-0.09415 -1.016781,-0.147701 -0.714173,-0.112978 -1.425127,-0.245029 -2.131871,-0.396398 -2.506787,-0.536275 -4.98584,-1.298504 -7.291054,-2.418738 -2.715542,-1.319534 -5.247587,-3.021038 -7.615453,-4.874645 0.177801,2.67746 0.564603,5.360055 1.222564,7.964643 0.603481,2.388414 1.412745,4.831117 2.85174,6.866172 0.719621,1.017283 1.641062,1.93455 2.827967,2.397218 1.058878,0.413271 2.214828,0.611837 3.339081,0.759539 2.392133,0.314233 4.815963,0.301517 7.203392,0.660989 3.231113,0.486633 6.202955,1.735495 8.787499,3.717975 -0.08593,-0.707452 -0.0525,-2.0913 0.15799,-4.055683 z"
       fill="#4ca8e0"
       id="path8" />
  </g>
</svg>
